<svg width="49" height="46" viewBox="0 0 49 46" fill="none" xmlns="http://www.w3.org/2000/svg">
<path d="M20.9903 37.569C20.722 38.4338 18.4768 37.7752 11.4135 34.7889C3.93879 31.6234 2.4122 30.6877 3.11811 29.8199C4.1058 28.6374 21.3833 36.1595 20.9903 37.569Z" fill="#FFDE70"/>
<path d="M38.8676 9.73901C41.7645 10.7117 41.963 11.2711 41.6249 17.4678C41.2832 23.8687 40.9626 25.0204 39.5982 25.0276C37.1239 25.0318 36.5989 23.295 36.5741 15.3476C36.5596 9.48417 36.7295 9.02106 38.8676 9.73901Z" fill="#FFDE70"/>
<path d="M19.2761 13.2129C21.3582 13.885 21.9688 14.499 23.5508 17.4705C28.206 26.3 32.3124 32.3005 28.2868 30.921C26.6397 30.3678 25.5855 28.8005 19.7572 18.6228C16.565 12.9838 16.4843 12.3297 19.2761 13.2129Z" fill="#FFDE70"/>
</svg>
