<svg width="12" height="12" viewBox="0 0 12 12" fill="none" xmlns="http://www.w3.org/2000/svg">
<path fill-rule="evenodd" clip-rule="evenodd" d="M3.21738 5.49824C3.21738 5.44884 3.237 5.40146 3.27194 5.36652C3.30687 5.33159 3.35425 5.31197 3.40365 5.31197H4.76323C4.81264 5.31197 4.86001 5.33159 4.89495 5.36652C4.92988 5.40146 4.94951 5.44884 4.94951 5.49824V11.3723C4.94951 11.4217 4.92988 11.4691 4.89495 11.504C4.86001 11.539 4.81264 11.5586 4.76323 11.5586H3.40365C3.35425 11.5586 3.30687 11.539 3.27194 11.504C3.237 11.4691 3.21738 11.4217 3.21738 11.3723V5.49824Z" fill="#6CF5C2"/>
<path fill-rule="evenodd" clip-rule="evenodd" d="M4.29158 5.31197H4.76323C4.81263 5.31197 4.86001 5.33159 4.89494 5.36652C4.92988 5.40146 4.9495 5.44884 4.9495 5.49824V11.3723C4.9495 11.4217 4.92988 11.4691 4.89494 11.504C4.86001 11.539 4.81263 11.5586 4.76323 11.5586H4.29158C4.34098 11.5586 4.38836 11.539 4.4233 11.504C4.45823 11.4691 4.47785 11.4217 4.47785 11.3723V5.49824C4.47785 5.44884 4.45823 5.40146 4.4233 5.36652C4.38836 5.33159 4.34098 5.31197 4.29158 5.31197Z" fill="#00E499"/>
<path fill-rule="evenodd" clip-rule="evenodd" d="M6.43365 6.67929C6.43366 6.62989 6.45329 6.58251 6.48822 6.54758C6.52316 6.51265 6.57053 6.49302 6.61993 6.49301H7.97947C8.02888 6.49301 8.07626 6.51264 8.11119 6.54757C8.14612 6.5825 8.16575 6.62988 8.16575 6.67929V11.3723C8.16576 11.3968 8.16095 11.421 8.15159 11.4436C8.14223 11.4662 8.12851 11.4868 8.11121 11.5041C8.09391 11.5214 8.07337 11.5351 8.05077 11.5444C8.02816 11.5538 8.00394 11.5586 7.97947 11.5586H6.61993C6.59547 11.5586 6.57124 11.5538 6.54864 11.5444C6.52604 11.5351 6.5055 11.5213 6.4882 11.5041C6.4709 11.4868 6.45718 11.4662 6.44782 11.4436C6.43846 11.421 6.43365 11.3968 6.43365 11.3723V6.67929Z" fill="#FFE177"/>
<path fill-rule="evenodd" clip-rule="evenodd" d="M7.50787 6.49301H7.97948C8.02889 6.49301 8.07627 6.51264 8.1112 6.54757C8.14613 6.5825 8.16576 6.62988 8.16576 6.67929V11.3723C8.16577 11.3968 8.16096 11.421 8.1516 11.4436C8.14224 11.4662 8.12852 11.4868 8.11122 11.5041C8.09392 11.5214 8.07338 11.5351 8.05078 11.5444C8.02817 11.5538 8.00395 11.5586 7.97948 11.5586H7.50787C7.55727 11.5586 7.60465 11.539 7.63958 11.504C7.67451 11.4691 7.69414 11.4217 7.69415 11.3723V6.67929C7.69414 6.62988 7.67452 6.5825 7.63961 6.54755C7.60466 6.51264 7.55728 6.49302 7.50787 6.49301Z" fill="#FFD064"/>
<path fill-rule="evenodd" clip-rule="evenodd" d="M9.65106 3.22525C9.65106 3.17584 9.67069 3.12846 9.70562 3.09353C9.74055 3.0586 9.78793 3.03897 9.83734 3.03897H11.1969C11.2463 3.03897 11.2937 3.0586 11.3286 3.09353C11.3635 3.12846 11.3832 3.17584 11.3832 3.22525V11.3723C11.3832 11.4217 11.3635 11.4691 11.3286 11.5041C11.2937 11.539 11.2463 11.5586 11.1969 11.5586H9.83734C9.78793 11.5586 9.74055 11.539 9.70562 11.5041C9.67069 11.4691 9.65106 11.4217 9.65106 11.3723V3.22525Z" fill="#8AC9FE"/>
<path fill-rule="evenodd" clip-rule="evenodd" d="M10.7253 3.03897H11.1969C11.2463 3.03897 11.2937 3.0586 11.3286 3.09353C11.3635 3.12846 11.3832 3.17584 11.3832 3.22525V11.3723C11.3832 11.4217 11.3635 11.4691 11.3286 11.5041C11.2937 11.539 11.2463 11.5586 11.1969 11.5586H10.7253C10.7747 11.5586 10.8221 11.539 10.857 11.5041C10.8919 11.4691 10.9116 11.4217 10.9116 11.3723V3.22525C10.9116 3.17584 10.8919 3.12846 10.857 3.09353C10.8221 3.0586 10.7747 3.03897 10.7253 3.03897Z" fill="#60B7FF"/>
<path fill-rule="evenodd" clip-rule="evenodd" d="M0 8.42152C0 8.37212 0.0196252 8.32474 0.0545584 8.2898C0.0894917 8.25487 0.136871 8.23524 0.186275 8.23524H1.54694C1.59634 8.23524 1.64372 8.25487 1.67865 8.2898C1.71358 8.32474 1.73321 8.37212 1.73321 8.42152V11.3723C1.73321 11.4217 1.71358 11.4691 1.67865 11.504C1.64372 11.539 1.59634 11.5586 1.54694 11.5586H0.186275C0.136871 11.5586 0.0894917 11.539 0.0545584 11.504C0.0196252 11.4691 0 11.4217 0 11.3723V8.42152Z" fill="#FE646F"/>
<path fill-rule="evenodd" clip-rule="evenodd" d="M1.07533 8.23524H1.54694C1.59635 8.23524 1.64373 8.25487 1.67866 8.2898C1.71359 8.32474 1.73322 8.37212 1.73322 8.42152V11.3723C1.73322 11.4217 1.71359 11.4691 1.67866 11.504C1.64373 11.539 1.59635 11.5586 1.54694 11.5586H1.07533C1.12474 11.5586 1.17212 11.539 1.20705 11.504C1.24198 11.4691 1.26161 11.4217 1.26161 11.3723V8.42152C1.26161 8.37212 1.24198 8.32474 1.20705 8.2898C1.17212 8.25487 1.12474 8.23524 1.07533 8.23524Z" fill="#FD4755"/>
<path fill-rule="evenodd" clip-rule="evenodd" d="M10.4435 1.09869L7.5155 4.1549C7.47165 4.20065 7.41437 4.23124 7.35197 4.24223C7.28956 4.25323 7.22527 4.24405 7.16843 4.21604L4.12899 2.71705L1.06235 5.3883C0.938332 5.49634 0.749897 5.48334 0.641858 5.35931C0.533819 5.23529 0.546784 5.04686 0.670842 4.93882L3.8871 2.13725C3.93142 2.09865 3.98617 2.07401 4.04445 2.06644C4.10274 2.05887 4.16197 2.0687 4.21468 2.0947L7.23616 3.58479L10.0423 0.655771H9.52354C9.35906 0.655771 9.2255 0.522212 9.2255 0.357732C9.2255 0.193251 9.35906 0.0596924 9.52354 0.0596924H10.7415C10.8206 0.0596924 10.8964 0.0910926 10.9523 0.146986C11.0082 0.202879 11.0396 0.278687 11.0396 0.357732V1.57567C11.0396 1.74015 10.906 1.87371 10.7415 1.87371C10.577 1.87371 10.4435 1.74015 10.4435 1.57567V1.09869Z" fill="#A79BA7"/>
</svg>
